<?xml version="1.0" standalone="no"?><!DOCTYPE svg PUBLIC "-//W3C//DTD SVG 1.1//EN" "http://www.w3.org/Graphics/SVG/1.1/DTD/svg11.dtd"><svg t="1693532176279" class="icon" viewBox="0 0 1024 1024" version="1.1" xmlns="http://www.w3.org/2000/svg" p-id="1232" xmlns:xlink="http://www.w3.org/1999/xlink" width="200" height="200"><path d="M504.64011842 523.04672658h-45.92676578c-1.36703242 0-2.47170507-1.10467265-2.47170508-2.47170507V-21.29453426c0-1.36703242 1.10467265-2.47170507 2.47170508-2.47170509h45.92676578c1.36703242 0 2.47170507 1.10467265 2.47170507 2.47170509v541.86955577c0 1.36703242-1.10467265 2.47170507-2.47170507 2.47170507z" fill="#1296db" p-id="1233"></path><path d="M499.9038344 209.96868677l-32.47737617 32.47737616c-0.96658859 0.96658859-2.5269387 0.96658859-3.49352729 0L323.55665289 102.05597645c-0.96658859-0.96658859-0.96658859-2.5269387 0-3.49352728l32.47737614-32.47737616c0.96658859-0.96658859 2.5269387-0.96658859 3.49352729 0l140.37627808 140.37627807c0.96658859 0.98039698 0.96658859 2.54074711 0 3.50733569z" fill="#1296db" p-id="1234"></path><path d="M463.44963666 209.96868677l32.47737616 32.47737616c0.96658859 0.96658859 2.5269387 0.96658859 3.49352729 0l140.37627806-140.37627807c0.96658859-0.96658859 0.96658859-2.5269387 0-3.49352728l-32.47737615-32.47737616c-0.96658859-0.96658859-2.5269387-0.96658859-3.49352729 0L463.44963666 206.4751595c-0.96658859 0.96658859-0.96658859 2.5269387 0 3.49352727zM493.15152276 503.16261873l-22.96338288 39.7682157c-0.676612 1.1875231-2.19553691 1.58796695-3.38306002 0.91135494L-2.45986544 272.90741149a2.47999012 2.47999012 0 0 1-0.91135494-3.38306002l22.96338289-39.7682157c0.676612-1.1875231 2.19553691-1.58796695 3.38306001-0.91135494L492.25397623 499.77955872c1.1737147 0.69042042 1.58796695 2.19553691 0.89754653 3.38306001z" fill="#1296db" p-id="1235"></path><path d="M219.64838095 350.71779186l11.88903948 44.35260725c0.35901861 1.3256072-0.42806065 2.6788312-1.75366784 3.02404139l-191.7573651 51.38108703c-1.3256072 0.35901861-2.6788312-0.42806065-3.02404139-1.75366783l-11.8890395-44.35260725c-0.35901861-1.3256072 0.42806065-2.6788312 1.75366783-3.0240414l191.7573651-51.38108703c1.3256072-0.34521021 2.6788312 0.44186907 3.02404142 1.75366784z" fill="#1296db" p-id="1236"></path><path d="M201.42128208 382.29762149l44.35260724-11.88903948c1.3256072-0.35901861 2.09887805-1.71224263 1.75366783-3.0240414L196.14647013 175.6271755a2.47860927 2.47860927 0 0 0-3.02404139-1.75366784l-44.35260725 11.88903949c-1.3256072 0.35901861-2.09887805 1.71224263-1.75366784 3.02404139l51.38108703 191.75736509a2.47170507 2.47170507 0 0 0 3.0240414 1.75366786z" fill="#1296db" p-id="1237"></path><path d="M470.18813988 503.16261873l22.96338288 39.7682157c0.676612 1.1875231 0.27616816 2.69263961-0.91135494 3.38306002L22.97522252 817.24867233c-1.1875231 0.676612-2.69263961 0.27616816-3.38306001-0.91135493l-22.96338289-39.76821571c-0.676612-1.1875231-0.27616816-2.69263961 0.91135494-3.38306l469.2649453-270.93477789c1.20133152-0.676612 2.70644802-0.27616816 3.38306002 0.91135493z" fill="#1296db" p-id="1238"></path><path d="M201.42128208 663.79583167l44.35260724 11.8890395c1.3256072 0.35901861 2.09887805 1.71224263 1.75366783 3.0240414L196.14647013 870.46627766c-0.35901861 1.3256072-1.71224263 2.09887805-3.02404139 1.75366784l-44.35260725-11.88903948a2.47860927 2.47860927 0 0 1-1.75366784-3.0240414l51.38108703-191.75736509a2.47170507 2.47170507 0 0 1 3.0240414-1.75366786z" fill="#1296db" p-id="1239"></path><path d="M219.64838095 695.3756613l11.88903948-44.35260724c0.35901861-1.3256072-0.42806065-2.6788312-1.75366784-3.0240414l-191.7573651-51.38108703c-1.3256072-0.35901861-2.6788312 0.42806065-3.02404139 1.75366785l-11.8890395 44.35260723c-0.35901861 1.3256072 0.42806065 2.6788312 1.75366783 3.0240414l191.7573651 51.38108704c1.3256072 0.34521021 2.6788312-0.44186907 3.02404142-1.75366785z" fill="#1296db" p-id="1240"></path><path d="M458.71335264 523.04672658h45.92676578c1.36703242 0 2.47170507 1.10467265 2.47170507 2.47170509v541.86955576c0 1.36703242-1.10467265 2.47170507-2.47170507 2.47170508h-45.92676578c-1.36703242 0-2.47170507-1.10467265-2.47170508-2.47170508V525.51843167c0-1.36703242 1.10467265-2.47170507 2.47170508-2.47170509z" fill="#1296db" p-id="1241"></path><path d="M463.44963666 836.1247664l32.47737616-32.47737616c0.96658859-0.96658859 2.5269387-0.96658859 3.49352729 0l140.37627806 140.37627806c0.96658859 0.96658859 0.96658859 2.5269387 0 3.49352728l-32.47737615 32.47737617c-0.96658859 0.96658859-2.5269387 0.96658859-3.49352729 0L463.44963666 839.61829366c-0.96658859-0.96658859-0.96658859-2.5269387 0-3.49352726z" fill="#1296db" p-id="1242"></path><path d="M499.9038344 836.1247664l-32.47737617-32.47737616c-0.96658859-0.96658859-2.5269387-0.96658859-3.49352729 0L323.55665289 944.03747671c-0.96658859 0.96658859-0.96658859 2.5269387 0 3.49352729l32.47737614 32.47737615c0.96658859 0.96658859 2.5269387 0.96658859 3.49352729 0l140.37627808-140.37627807c0.96658859-0.98039698 0.96658859-2.54074711 0-3.50733568z" fill="#1296db" p-id="1243"></path><path d="M470.18813988 542.93083443l22.96338288-39.7682157c0.676612-1.1875231 2.19553691-1.58796695 3.38306002-0.91135493l469.26494531 270.93477789c1.1875231 0.676612 1.58796695 2.19553691 0.91135493 3.38306l-22.96338287 39.76821571c-0.676612 1.1875231-2.19553691 1.58796695-3.38306003 0.91135493L471.09949482 546.31389445c-1.1875231-0.69042042-1.58796695-2.19553691-0.91135494-3.38306002z" fill="#1296db" p-id="1244"></path><path d="M743.6912817 695.3756613l-11.88903948-44.35260724c-0.35901861-1.3256072 0.42806065-2.6788312 1.75366785-3.0240414l191.7573651-51.38108703c1.3256072-0.35901861 2.6788312 0.42806065 3.02404138 1.75366785l11.8890395 44.35260723c0.35901861 1.3256072-0.42806065 2.6788312-1.75366786 3.0240414l-191.75736509 51.38108704c-1.31179878 0.34521021-2.66502278-0.44186907-3.0240414-1.75366785z" fill="#1296db" p-id="1245"></path><path d="M761.93218898 663.79583167l-44.35260725 11.8890395c-1.3256072 0.35901861-2.09887805 1.71224263-1.75366784 3.0240414l51.38108703 191.75736509c0.35901861 1.3256072 1.71224263 2.09887805 3.02404139 1.75366784l44.35260726-11.88903948c1.3256072-0.35901861 2.09887805-1.71224263 1.75366783-3.0240414L764.95623037 665.54949953a2.47860927 2.47860927 0 0 0-3.02404139-1.75366786z" fill="#1296db" p-id="1246"></path><path d="M493.15152276 542.93083443l-22.96338288-39.7682157c-0.676612-1.1875231-0.27616816-2.69263961 0.91135494-3.38306001l469.2649453-270.93477789c1.1875231-0.676612 2.69263961-0.27616816 3.38306003 0.91135494l22.96338287 39.7682157c0.676612 1.1875231 0.27616816 2.69263961-0.91135493 3.38306002L496.53458278 543.84218937c-1.1875231 0.676612-2.69263961 0.27616816-3.38306002-0.91135494z" fill="#1296db" p-id="1247"></path><path d="M761.93218898 382.29762149l-44.35260725-11.88903948a2.47860927 2.47860927 0 0 1-1.75366784-3.0240414l51.38108703-191.75736511c0.35901861-1.3256072 1.71224263-2.09887805 3.02404139-1.75366784l44.35260726 11.88903949c1.3256072 0.35901861 2.09887805 1.71224263 1.75366783 3.02404139L764.95623037 380.54395363c-0.35901861 1.3256072-1.71224263 2.09887805-3.02404139 1.75366786z" fill="#1296db" p-id="1248"></path><path d="M743.6912817 350.71779186l-11.88903948 44.35260725c-0.35901861 1.3256072 0.42806065 2.6788312 1.75366785 3.02404139l191.7573651 51.38108703c1.3256072 0.35901861 2.6788312-0.42806065 3.02404138-1.75366783l11.8890395-44.35260725c0.35901861-1.3256072-0.42806065-2.6788312-1.75366786-3.0240414l-191.75736509-51.38108703c-1.31179878-0.34521021-2.66502278 0.44186907-3.0240414 1.75366784z" fill="#1296db" p-id="1249"></path></svg>